<svg width="800" height="800" viewBox="0 -28.5 256 256" xmlns="http://www.w3.org/2000/svg" preserveAspectRatio="xMidYMid"><g><path d="M46.5392504 198.011312V184.839826C46.5392504 179.790757 43.4659038 176.497885 38.1973096 176.497885c-2.6342971.0-5.488119.878098999999992-7.4638418 3.731921-1.5366733-2.414772-3.7319209-3.731921-7.0247922-3.731921C21.513428 176.497885 19.3181804 177.15646 17.5619824 179.571233v-2.634298H12.9519625v21.074377h4.6100199V186.3765c0-3.731921 1.9757228-5.48811899999998 5.0490694-5.48811899999998C25.6843984 180.888381 27.2210717 182.864103 27.2210717 186.3765v11.634812h4.6100199V186.3765C31.8310916 182.644579 34.0263392 180.888381 36.880161 180.888381 39.9535076 180.888381 41.490181 182.864103 41.490181 186.3765v11.634812h5.0490694zM114.81145 176.936935h-7.463842v-6.366218H102.737589v6.366218H98.566618V181.107905H102.737589V190.766995c0 4.829545 1.975722 7.683367 7.244317 7.683367C111.957628 198.450362 114.152876 197.791787 115.689549 196.913688L114.372401 192.962243C113.055252 193.840341 111.518579 194.059866 110.420955 194.059866 108.225708 194.059866 107.347608 192.742718 107.347608 190.54747V181.107905h7.463842V176.936935zM153.886857 176.497885C151.25256 176.497885 149.496362 177.815034 148.398738 179.571233v-2.634298H143.788718v21.074377H148.398738V186.156975C148.398738 182.644579 149.935411 180.668856 152.789233 180.668856 153.667332 180.668856 154.764956 180.888381 155.643055 181.107905L156.960204 176.71741C156.082105 176.497885 154.764956 176.497885 153.886857 176.497885zM94.834697 178.693133C92.6394495 177.15646 89.566103 176.497885 86.2732315 176.497885 81.0046375 176.497885 77.492241 179.132183 77.492241 183.303153 77.492241 186.81555 80.1265385 188.791272 84.736558 189.449847L86.931806 189.669371C89.346578 190.10842 90.6637265 190.766995 90.6637265 191.864619c0 1.53667300000001-1.756198 2.634297-4.8295445 2.634297S80.346063 193.401292 78.8093895 192.303668L76.614142 195.816065C79.0289145 197.572262 82.321786 198.450362 85.614657 198.450362 91.7613505 198.450362 95.2737465 195.59654 95.2737465 191.645094c0-3.731921-2.85382200000001-5.70764299999999-7.244317-6.366218L85.834182 185.059351C83.858459 184.839826 82.321786 184.400777 82.321786 183.083629 82.321786 181.546955 83.858459 180.668856 86.2732315 180.668856 88.9075285 180.668856 91.5418255 181.76648 92.858974 182.425054l1.975723-3.731921zM217.329512 176.497885C214.695215 176.497885 212.939017 177.815034 211.841393 179.571233v-2.634298H207.231373v21.074377H211.841393V186.156975C211.841393 182.644579 213.378066 180.668856 216.231888 180.668856 217.109987 180.668856 218.207611 180.888381 219.08571 181.107905L220.402859 176.71741C219.52476 176.497885 218.207611 176.497885 217.329512 176.497885zm-58.832635 10.976238c0 6.366218 4.39049499999999 10.976239 11.195763 10.976239C172.765986 198.450362 174.961234 197.791787 177.156481 196.035589L174.961234 192.303668C173.205036 193.620817 171.448838 194.279391 169.473115 194.279391c-3.731921.0-6.366218-2.634297-6.366218-6.80526800000001C163.106897 183.522678 165.741194 180.888381 169.473115 180.668856 171.448838 180.668856 173.205036 181.32743 174.961234 182.644579L177.156481 178.912658C174.961234 177.15646 172.765986 176.497885 169.69264 176.497885 162.887372 176.497885 158.496877 181.107905 158.496877 187.474123zm42.587803.0V176.936935H196.47466v2.634298C194.937987 177.595509 192.742739 176.497885 189.888917 176.497885c-5.927168.0-10.537188 4.61001999999999-10.537188 10.976238S183.961749 198.450362 189.888917 198.450362C192.962264 198.450362 195.157512 197.352737 196.47466 195.377015v2.634297H201.08468V187.474123zm-16.903406.0c0-3.731921 2.414772-6.80526699999999 6.366218-6.80526699999999 3.731921.0 6.366218 2.85382200000001 6.366218 6.80526699999999.0 3.731921-2.634297 6.80526800000001-6.366218 6.80526800000001C186.596046 194.059866 184.181274 191.206044 184.181274 187.474123zm-55.100715-10.976238c-6.146693.0-10.537188 4.39049600000001-10.537188 10.976238.0 6.58574300000001 4.390495 10.976239 10.756713 10.976239C132.373431 198.450362 135.446777 197.572262 137.861549 195.59654L135.666302 192.303668C133.910104 193.620817 131.714856 194.498916 129.519609 194.498916c-2.85382200000001.0-5.707644-1.317148-6.366218-5.049069h15.586257V187.693648C138.959173 180.888381 135.007727 176.497885 129.080559 176.497885zm0 3.951446C131.934381 180.449331 133.910104 182.20553 134.349153 185.498401H123.372916C123.811965 182.644579 125.787688 180.449331 129.080559 180.449331zM243.452958 187.474123V168.594995H238.842938v10.976238C237.306265 177.595509 235.111017 176.497885 232.257196 176.497885 226.330027 176.497885 221.720007 181.107905 221.720007 187.474123S226.330027 198.450362 232.257196 198.450362C235.330542 198.450362 237.52579 197.352737 238.842938 195.377015v2.634297H243.452958V187.474123zm-16.903406.0c0-3.731921 2.414772-6.80526699999999 6.366218-6.80526699999999 3.731921.0 6.366218 2.85382200000001 6.366218 6.80526699999999.0 3.731921-2.634297 6.80526800000001-6.366218 6.80526800000001C228.964324 194.059866 226.549552 191.206044 226.549552 187.474123zm-154.10638.0V176.936935H67.833152v2.634298C66.2964785 177.595509 64.101231 176.497885 61.247409 176.497885c-5.9271685.0-10.5371885 4.61001999999999-10.5371885 10.976238s4.61002 10.976239 10.5371885 10.976239C64.3207555 198.450362 66.5160035 197.352737 67.833152 195.377015v2.634297H72.443172V187.474123zm-17.1229315.0C55.3202405 183.742202 57.735013 180.668856 61.6864585 180.668856c3.731921.0 6.366218 2.85382200000001 6.366218 6.80526699999999.0 3.731921-2.634297 6.80526800000001-6.366218 6.80526800000001C57.735013 194.059866 55.3202405 191.206044 55.3202405 187.474123z" fill="#000"/><rect fill="#FF5F00" x="93.2980455" y="16.9034088" width="69.1502985" height="124.251009"/><path d="M97.688519 79.0288935c0-25.2453475 11.854337-47.6368726 30.074892-62.1255066C114.3724 6.3661985 97.468994-.194737475e-4 79.0289145-.194737475e-4 35.3434877-.194737475e-4.17258174e-5 35.3434665.17258174e-5 79.0288935.17258174e-5 122.71432 35.3434877 158.057806 79.0289145 158.057806c18.4400795.0 35.3434855-6.366218 48.7344965-16.903406-18.220555-14.26911-30.074892-36.880159-30.074892-62.1255065z" fill="#EB001B"/><path d="M255.746345 79.0288935c0 43.6854265-35.343486 79.0289125-79.028913 79.0289125-18.44008.0-35.343487-6.366218-48.734496-16.903406 18.440079-14.488634 30.074891-36.880159 30.074891-62.1255065.0-25.2453475-11.854337-47.6368726-30.074891-62.1255066C141.373945 6.3661985 158.277352-.194737475e-4 176.717432-.194737475e-4c43.685427.0 79.028913 35.5630107737475 79.028913 79.0289129737475z" fill="#F79E1B"/></g></svg>
